<svg viewBox="0 0 88 88" xmlns="http://www.w3.org/2000/svg"><path d="M56.905 44.877c0-7.127-5.778-12.904-12.905-12.904-7.128 0-12.905 5.778-12.905 12.904 0 7.127 5.777 12.905 12.905 12.905 7.127-.001 12.905-5.779 12.905-12.905zm8.218 0c0 11.648-9.476 21.123-21.123 21.123-11.648 0-21.123-9.475-21.123-21.123 0-3.343.801-6.496 2.191-9.309h-25.068v30.86c0 11.864 9.707 21.572 21.572 21.572h44.856c11.864 0 21.572-9.708 21.572-21.572v-30.86h-25.067c1.388 2.813 2.189 5.966 2.189 9.309zm1.306-44.877h-44.856c-11.865 0-21.572 9.707-21.572 21.572v5.778h32.226c3.366-2.268 7.419-3.595 11.774-3.595 4.355 0 8.408 1.327 11.774 3.595h32.225v-5.778c0-11.865-9.708-21.572-21.572-21.572zm9.801 20.949h-9.221v-9.221h9.221v9.221z" /></svg>